<svg width="1690" height="945" viewBox="0 0 1690 945" fill="none" xmlns="http://www.w3.org/2000/svg">
<path d="M620 1.1021C605.93 2.9511 591.568 6.2911 581.09 16.7681C561.996 35.8621 560.561 77.1561 578.21 97.6771C594.957 117.149 625.189 119.316 649 116.392C663.843 114.569 679.337 109.21 689.319 97.5081C706.045 77.9011 705.341 38.9741 688.699 19.6821C672.735 1.1751 642.887 -1.9039 620 1.1021ZM837 1.1021C821.86 3.1151 807.6 7.87811 797.184 19.6791C779.471 39.7471 780.265 79.9861 798.301 99.5881C814.849 117.572 845.4 119.324 868 116.389C881.55 114.628 896.27 109.875 905.83 99.6391C924.95 79.1611 924.16 38.2411 905.7 17.7181C889.92 0.175098 858.89 -1.8069 837 1.1021ZM0 130.678C3.201 137 10.133 141.226 14.674 146.678C20.454 153.616 24.406 162.285 27.575 170.678C40.373 204.579 44.585 241.856 48.169 277.678C53.674 332.699 56.623 387.486 59.039 442.678L69.961 688.678C71.929 733.626 72.016 778.798 75.09 823.678C77.076 852.678 76.848 888.088 92.707 913.678C108.251 938.758 137.632 943.638 165 941.768C178.311 940.858 190.975 939.618 200.96 929.638C213.49 917.108 214.94 897.368 216.09 880.678C218.574 844.598 218 807.878 218 771.678C218 629.678 223 487.692 223 345.678C223 325.96 224 306.4 224 286.678C224 260.714 223.29 234.424 226.87 208.678C228.965 193.603 233.1 168.829 253 168.757C272.66 168.687 279.537 191.516 280.914 207.678C282.993 232.082 282.969 256.233 284.039 280.678C284.985 302.276 286 324.045 286 345.678C286 382.009 288.096 418.385 288.985 454.678C291.395 553.036 293.576 651.363 295.985 749.678C296.907 787.308 295.43 825.318 300.575 862.678C303.217 881.858 307.938 903.258 320.468 918.678C337.405 939.518 365.706 943.388 391 941.768C405.428 940.838 419.678 938.258 430.985 928.378C443.148 917.748 448.477 900.228 450.7 884.678C452.921 869.138 452.02 853.288 453.089 837.678C455.688 799.738 456.375 761.68 458.039 723.678C460.842 659.681 464.158 595.675 466.961 531.678C469.136 481.993 470.513 432.289 473.911 382.678C478.299 318.595 479.797 252.393 495.475 189.678C498.965 175.719 503.109 161.8 511.079 149.678C515.398 143.109 524.665 137.939 527 130.678C519.039 132.049 511.651 136.435 504 139.011C488.946 144.078 473.961 147.338 458 147.338C439.78 147.338 422.412 143.347 405 138.254C397.003 135.914 389.252 131.897 381 130.678C384.229 137.036 391.995 141.54 396.985 146.678C403.461 153.347 408.29 162.005 411.575 170.678C420.919 195.351 424.374 221.6 427.166 247.678C431.412 287.343 432.039 326.827 433.015 366.678C435.877 483.512 434 600.74 434 717.678C434 773.018 434.34 828.368 432.985 883.678C432.622 898.508 425.898 919.738 407 915.148C404.382 914.508 402.062 913.228 400.043 911.458C387.961 900.818 389 877.378 389 862.678C389 823.698 386 784.668 386 745.678C386 695.353 383.246 644.955 382.015 594.678L379.015 467.678C378.41 443.005 379.04 418.329 377.961 393.678C376.418 358.449 375 322.959 375 287.678C375 257.788 375.647 226.083 369.8 196.678C366.882 182 361.238 166.519 348.985 157.017C333.473 144.988 312.852 143.058 294 141.767C280.183 140.821 265.606 141.382 252 143.939C246.785 144.919 241.769 146.619 237 148.937C197.282 168.247 202 222.526 202 259.678V286.678C202 371.919 200.412 457.444 200.001 542.678C199.675 610.265 201.994 678.206 199.039 745.678C197.251 786.508 199 827.808 199 868.678C199 882.708 198.986 905.598 184.999 913.588C182.536 914.998 179.801 915.508 177 915.638C157.233 916.578 155.13 895.868 154.09 880.678C152.936 863.838 154 846.558 154 829.678V729.678V472.678C154 435.989 154.088 399.291 154.985 362.678C155.395 345.966 154.769 329.342 155.91 312.678C156.479 304.373 155.675 295.993 156.039 287.678C157.225 260.593 159.178 233.606 162.718 206.678C164.986 189.432 167.483 171.452 175.37 155.678C180.309 145.801 188.53 140.138 195 131.678C187.027 130.499 177.656 136.066 170 138.251C155.098 142.503 139.518 145.959 124 146.639C98.625 147.75 73.12 147.773 48 143.067C38.178 141.227 28.586 139.061 19 136.254C12.677 134.402 6.536 131.643 0 130.678ZM980 131.678C982.81 137.221 988.61 140.846 992.53 145.678C997.3 151.55 1000.36 158.627 1002.95 165.678C1013.78 195.215 1015.96 227.607 1018.09 258.678C1021.47 307.959 1023 357.202 1023 406.678C1023 502.675 1023.14 598.766 1022 694.678C1021.45 741.481 1020.83 788.108 1016.17 834.678C1013.54 861.008 1011.23 888.998 1000.99 913.678C997.94 921.018 994.02 927.708 988.71 933.668C985.59 937.168 981.38 939.628 979 943.678C987.79 944.238 998.46 938.478 1007 936.098C1022.88 931.688 1039.51 928.438 1056 927.718C1070.69 927.078 1085.62 927.928 1100 931.098C1118.66 935.218 1137.75 941.908 1157 942.418C1183.85 943.138 1209.33 929.598 1236 927.768C1256.4 926.368 1278.34 929.698 1298 935.108C1308.4 937.958 1318.53 942.258 1329 944.678C1326.8 937.448 1318.29 932.968 1314.1 926.678C1307.39 916.598 1303.66 904.358 1300.88 892.678C1287.76 837.368 1289.43 779.998 1286.96 723.678C1285.23 684.073 1286.02 644.282 1286.99 604.678C1289.15 516.186 1294.98 427.339 1308.58 339.678C1311.3 322.109 1313.32 304.354 1315.17 286.678C1317.69 262.625 1320.99 238.872 1322.04 214.678C1323.09 190.551 1318.91 165.885 1298 150.605C1292.6 146.658 1286.27 143.651 1280 141.373C1269.32 137.494 1258.21 135.853 1247 134.396C1232.13 132.465 1214.44 132.111 1200 136.449C1156.14 149.623 1134.58 198.929 1121.33 238.678C1113.54 262.069 1108.47 286.413 1104.25 310.678C1103.38 315.677 1102.2 332.954 1093.05 328.606C1088.56 326.468 1088.04 321.023 1088 316.678C1087.93 306.618 1090.42 296.483 1092.4 286.678C1097.76 260.08 1105.3 233.77 1112.71 207.678C1116.23 195.278 1122.59 177.511 1119.07 164.678C1115.94 153.268 1104.89 149.216 1094 148.717C1071.74 147.698 1048.98 148.624 1027 144.229C1017.92 142.413 1008.84 140.094 1000 137.337C993.54 135.323 986.73 132.352 980 131.678ZM1690 560.678C1687.75 559.925 1684.62 558.227 1682.21 559.085C1679.88 559.915 1678.74 562.733 1677.55 564.679C1675.04 568.765 1672.41 572.865 1669.5 576.678C1657.1 592.92 1641.07 605.648 1625 618.027C1606.72 632.11 1587.41 644.99 1572.3 662.678C1534.07 707.426 1548.79 769.668 1569.01 818.678C1578.22 841.008 1593.34 865.608 1590.83 890.678C1587.56 923.378 1547.39 928.018 1521 925.508C1501.31 923.638 1475.64 920.938 1470.04 897.678C1468.96 893.178 1468.58 888.298 1468.75 883.678C1469.79 855.118 1487.55 827.758 1497.8 801.678C1511.6 766.548 1516.5 728.772 1507.76 691.678C1500.75 661.905 1483.43 638.032 1461 617.849C1433.66 593.247 1388.8 575.203 1389 532.678C1389.03 526.027 1389.91 519.102 1391.64 512.678C1393.71 504.994 1397.01 497.348 1401.34 490.678C1412.9 472.875 1439.99 446.954 1463 461.146C1472.27 466.863 1478.76 477.642 1484.42 486.678C1492.46 499.48 1500.58 512.177 1510.43 523.678C1533.15 550.201 1566.88 561.678 1601 561.678C1613.41 561.678 1626.25 561.071 1638 556.612C1666.78 545.688 1669.69 514.299 1666.83 487.678C1664.94 470.089 1659.89 452.936 1656.21 435.678C1650.64 409.534 1646.64 383.379 1645.99 356.678C1645.85 350.959 1644.69 345.444 1645.09 339.678C1645.74 330.19 1647.12 320.85 1649.71 311.678C1658.08 282.099 1672.96 253.627 1675.09 222.678C1676.22 206.271 1674.62 189.543 1664.7 175.678C1660.85 170.299 1656.11 165.332 1651 161.143C1635.43 148.379 1614.41 142.559 1595 138.678C1572.85 134.249 1550.52 133.678 1528 133.678C1502.35 133.678 1477.03 134.796 1452 141.053C1427.37 147.211 1402 158.604 1390.26 182.678C1371.11 221.941 1396.41 266.278 1408.03 303.678C1411.45 314.694 1414.94 326.033 1415 337.678C1415.18 375.269 1408.92 411.336 1395.95 446.678C1386.22 473.19 1369.3 500.882 1368.04 529.678C1366.66 561.204 1380.64 589.352 1389.97 618.678C1397.39 641.987 1403.99 665.454 1407.73 689.678C1409.76 702.886 1410.06 716.373 1410.91 729.678C1412.66 757.098 1394.85 780.518 1383.27 803.678C1370.47 829.288 1366.29 857.628 1377.87 884.678C1389.53 911.898 1415.93 925.378 1443 933.098C1459.61 937.838 1476.85 939.568 1494 940.768C1507.99 941.748 1522.04 942.328 1536 941.718C1542.99 941.408 1550.02 942.068 1557 941.588C1605.01 938.298 1670.15 930.088 1686.28 875.678C1693.1 852.668 1689.71 828.338 1680.14 806.678C1669.58 782.788 1652.67 759.858 1648.29 733.678C1645.78 718.727 1647.06 703.616 1648.84 688.678C1654.26 643.446 1672.92 602.323 1690 560.678ZM761 137.678C763.102 144.845 771.532 149.51 775.779 155.678C782.796 165.867 786.527 178.751 789.346 190.678C797.828 226.576 799.434 264.021 801.039 300.678C803.607 359.307 804 417.878 804 476.678C804 557.32 804.988 638.127 803.015 718.678C801.609 776.078 802.258 835.358 789.349 891.678C786.615 903.608 782.784 916.508 775.779 926.678C771.549 932.818 763.166 937.568 761 944.678C796.221 933.218 832.581 924.288 870 927.848C884.04 929.188 898.35 931.238 912 934.828C922.77 937.668 933.19 942.178 944 944.678C941.71 937.148 932.69 932.398 928.46 925.678C920.99 913.798 917.42 900.258 914.42 886.678C903.14 835.578 904.23 782.598 901.96 730.678C900.33 693.438 901 656.004 901 618.678V447.678C901 390.881 901.04 334.253 904.91 277.678C907.32 242.441 908.84 205.257 921.05 171.678C923.62 164.619 927.21 157.36 932.19 151.678C936.03 147.291 941.36 143.897 944 138.678C936.59 139.421 929.15 142.836 922 144.957C910.82 148.275 899.54 150.707 888 152.406C845.15 158.718 801.367 153.25 761 137.678ZM542 138.678C544.423 143.461 549.131 145.876 552.699 149.767C557.818 155.351 561.657 162.63 564.316 169.678C575.078 198.211 577.975 229.516 580.089 259.678C583.41 307.048 584.438 354.136 585.004 401.678C586.129 496.276 585 591.09 585 685.678C585 726.499 583.873 767.028 581.089 807.678C578.658 843.188 577.198 881.278 563.548 914.678C560.743 921.538 556.7 928.148 551.711 933.638C548.531 937.138 544.382 939.558 542 943.678C546.962 943.998 551.345 941.748 556 940.198C562.869 937.908 569.975 935.898 577 934.158C595.744 929.488 614.748 927.678 634 927.678C653.668 927.678 672.87 929.768 692 934.548C698.738 936.238 705.411 938.148 712 940.348C716.585 941.868 721.138 943.988 726 943.678C723.384 939.228 718.592 936.478 715.104 932.678C710.754 927.928 706.964 921.608 704.464 915.678C693.896 890.588 691.379 862.448 688.83 835.678C684.48 789.998 684.109 744.539 682.985 698.678C681.281 629.112 682 559.332 682 489.678C682 453.988 682.113 418.293 682.985 382.678C683.387 366.298 682.792 350.01 683.911 333.678C684.844 320.052 684.156 306.309 685.089 292.678C686.903 266.192 689.698 240.01 692.83 213.678C696.071 186.432 703.02 157.712 726 140.678C721.396 137.489 714.896 141.483 710 142.958C696.117 147.14 682.24 150.195 668 152.874C657.42 154.864 646.717 154.678 636 154.678C618.798 154.678 601.877 153.976 585 150.254C570.88 147.139 556.287 139.925 542 138.678ZM1526 149.964C1530.44 149.447 1534.59 150.445 1539 150.639C1560.38 151.576 1583.15 156.851 1586.7 181.678C1589.91 204.171 1577.9 227.624 1569.28 247.678C1555.75 279.159 1540.98 315.623 1545.29 350.678C1549.83 387.659 1574 415.776 1600 440.639C1614.22 454.233 1630.64 467.187 1640.33 484.678C1647.78 498.125 1649.54 518.731 1637.9 530.585C1632.8 535.773 1626.02 538.475 1619 539.87C1605.26 542.6 1588.49 541.175 1575 537.805C1563.06 534.819 1552.22 530.625 1542 523.649C1534.07 518.24 1527.03 511.48 1521.43 503.678C1516.57 496.909 1512.11 489.566 1509.34 481.678C1504.03 466.531 1500.33 449.827 1501.04 433.678C1502.33 404.201 1511.91 375.96 1513.91 346.678C1514.69 335.327 1513.44 323.861 1511.56 312.678C1506.75 284.033 1493.74 257.619 1483.58 230.678C1477.92 215.682 1471.16 199.091 1473.29 182.678C1473.81 178.639 1474.69 174.411 1476.35 170.678C1485.21 150.725 1507.8 152.081 1526 149.964ZM1206 153.004C1217.31 151.115 1229.73 154.288 1234.52 165.678C1237.1 171.816 1237 178.158 1237 184.678C1237 218.914 1228.94 252.989 1223.73 286.678C1211.61 364.942 1198.5 442.627 1193.09 521.678C1187.72 600.101 1189 678.977 1189 757.678C1189 801.308 1190.26 845.738 1181.6 888.678C1179.45 899.328 1176.95 910.468 1170.9 919.678C1168.06 923.998 1164.38 928.538 1159 929.458C1138.02 933.048 1130.99 908.818 1128.29 892.678C1120.92 848.668 1120 803.198 1120 758.678C1120 664.416 1119 570.018 1119 475.678C1119 414.894 1116.65 353.933 1125 293.678C1130.24 255.892 1143.23 217.162 1164.98 185.678C1174.2 172.327 1189.08 155.829 1206 153.004Z" fill="#1F79CC"/>
</svg>
