<svg width="120" height="56" viewBox="0 0 120 56" fill="none" xmlns="http://www.w3.org/2000/svg">
<path d="M22.8 36.8H22L18.4 22.4H12.4L8.4 36.8H7.6V0H0V55.2H8.4L14.8 30.4H15.6L22 55.2H30.4V0H22.8V36.8Z" fill="#1F79CC"/>
<path d="M39.6187 39.2H43.6187L45.2188 27.2V0H38.0187V27.2L39.6187 39.2ZM38.0187 55.2H45.2188V47.2H38.0187V55.2Z" fill="#1F79CC"/>
<path d="M53.2125 39.2H57.2125L58.8125 27.2V0H51.6125V27.2L53.2125 39.2ZM51.6125 55.2H58.8125V47.2H51.6125V55.2Z" fill="#1F79CC"/>
<path d="M90.4062 55.2V0H82.8063V25.6H82.4062L74.0062 0H66.4062V55.2H74.0062V18.4H74.4062L82.8063 44V55.2H90.4062Z" fill="#1F79CC"/>
<path d="M119.619 55.2V48.4H106.819V30H114.339V23.2H106.819V6.8H118.819V0H99.2188V55.2H119.619Z" fill="#1F79CC"/>
</svg>
