<svg width="154" height="51" viewBox="0 0 154 51" fill="none" xmlns="http://www.w3.org/2000/svg">
<path d="M32.3 39.1H31.96L23.46 23.8H16.32L8.16 39.1H7.82V4.08H0V51H9.18L20.06 30.6H20.4L30.94 51H40.12V4.08H32.3V39.1Z" fill="#1F79CC"/>
<path d="M50.32 7.82H57.8V0H50.32V7.82ZM57.8 51V17H48.28V23.46H51V51H57.8Z" fill="#1F79CC"/>
<path d="M67.32 7.82H74.8V0H67.32V7.82ZM74.8 51V17H65.28V23.46H68V51H74.8Z" fill="#1F79CC"/>
<path d="M84.32 51H91.12V30.26C91.12 26.52 93.84 23.12 97.92 23.12C102 23.12 104.72 26.52 104.72 30.26V51H111.52V25.16L103.36 17H96.56L90.1 23.46L87.72 17H84.32V51Z" fill="#1F79CC"/>
<path d="M152.331 44.2V39.78H146.551C145.531 44.54 141.111 45.9 136.691 45.9C131.591 45.9 126.491 41.48 126.491 36.04H153.011V26.52L143.491 17H129.891L119.691 27.2V41.48L129.211 51H145.531L152.331 44.2ZM136.351 21.76C141.791 21.76 146.211 26.18 146.211 30.94H126.491C126.491 26.18 130.911 21.76 136.351 21.76Z" fill="#1F79CC"/>
</svg>
