<svg width="425" viewBox="0 0 425 116" xmlns="http://www.w3.org/2000/svg">
<path d="M137.16 111H134.6C118.92 111 115.72 97.72 130.12 73.4L151.4 37.24C167.4 10.04 175.72 5.39998 187.88 5.39998H189.32L190.12 2.19997H130.76L130.12 5.39998H131.4C148.68 5.39998 159.56 11.64 144.52 37.24L106.44 102.2L98.6 42.68C95.08 15.48 103.08 5.39998 121.32 5.39998H122.6L123.24 2.19997H65.32L64.52 5.39998H68.04C85.16 5.39998 87.24 16.12 71.4 43L36.04 102.84L31.88 43C30.12 18.68 36.84 5.39998 53.32 5.39998H56.84L57.48 2.19997H1.16L0.52 5.39998H1.96C17.96 5.39998 23.56 15 25.64 43L27.88 73.4C29.8 99.48 23.88 111 7.72 111H5.16L4.52 114.2H63.72L64.36 111H61.8C46.28 111 45.32 97.88 60.04 73.4L90.12 23.32L96.52 73.4C99.72 98.52 94.76 111 79.24 111H76.52L75.88 114.2H136.52L137.16 111Z"/>
<path d="M196.579 8.91998C196.579 12.92 200.259 17.08 206.339 17.08C212.259 17.08 215.939 12.92 215.939 8.91998C215.939 4.75998 212.259 0.599976 206.339 0.599976C200.259 0.599976 196.579 4.75998 196.579 8.91998ZM193.379 63.96C201.539 45.56 205.059 32.6 194.819 32.6C185.539 32.6 173.059 42.84 159.619 63.48L162.819 65.24C173.059 49.72 179.459 44.76 185.059 44.76C190.019 44.76 194.499 48.28 188.419 62.04L178.499 84.44C170.339 102.84 166.819 115.8 177.059 115.8C186.339 115.8 198.819 105.56 212.259 84.92L209.059 83.16C198.819 98.68 192.419 103.64 186.819 103.64C181.859 103.64 177.379 100.12 183.459 86.36L193.379 63.96Z"/>
<path d="M245.691 8.91998C245.691 12.92 249.371 17.08 255.451 17.08C261.371 17.08 265.051 12.92 265.051 8.91998C265.051 4.75998 261.371 0.599976 255.451 0.599976C249.371 0.599976 245.691 4.75998 245.691 8.91998ZM242.491 63.96C250.651 45.56 254.171 32.6 243.931 32.6C234.651 32.6 222.171 42.84 208.731 63.48L211.931 65.24C222.171 49.72 228.571 44.76 234.171 44.76C239.131 44.76 243.611 48.28 237.531 62.04L227.611 84.44C219.451 102.84 215.931 115.8 226.171 115.8C235.451 115.8 247.931 105.56 261.371 84.92L258.171 83.16C247.931 98.68 241.531 103.64 235.931 103.64C230.971 103.64 226.491 100.12 232.571 86.36L242.491 63.96Z"/>
<path d="M322.644 115.8C332.564 115.8 346.804 106.04 360.724 84.92L357.524 83.16C346.804 99.32 338.644 103.64 332.404 103.64C327.284 103.64 322.804 100.12 329.044 86.36L339.124 64.12C349.204 41.72 347.284 32.6 338.004 32.6C330.164 32.6 320.884 37.4 303.284 60.92C293.044 74.68 288.564 81.72 280.404 94.84H278.004L291.604 63.96C299.764 45.56 303.284 32.6 293.044 32.6C283.764 32.6 271.284 42.84 257.844 63.48L261.044 65.24C271.284 49.72 277.684 44.76 283.284 44.76C288.244 44.76 292.724 48.28 286.644 62.04L264.724 111.8L266.324 114.2H277.684C284.564 97.24 291.764 84.44 303.124 69.4C318.004 49.56 322.964 46.36 330.004 46.36C336.724 46.36 339.124 51.64 334.804 61.24L324.244 84.44C315.924 102.84 312.244 115.8 322.644 115.8Z"/>
<path d="M420.309 83.32L417.269 81.24C403.189 102.04 391.989 108.76 382.229 108.76C373.909 108.76 368.789 102.52 368.789 91C368.789 87.32 369.109 83.8 369.749 80.12C407.989 73.08 424.789 60.6 424.789 47.16C424.789 37.56 419.669 32.6 407.829 32.6C383.829 32.6 357.589 64.6 357.589 95C357.589 106.68 363.509 115.8 377.269 115.8C391.189 115.8 406.229 104.76 420.309 83.32ZM405.429 38.36C410.869 38.36 413.909 41.72 413.909 47.96C413.909 56.76 406.549 68.76 370.549 76.12C375.349 55.32 389.749 38.36 405.429 38.36Z"/>
</svg>
