<svg width="158" height="56" viewBox="0 0 158 56" fill="none" xmlns="http://www.w3.org/2000/svg">
<path d="M0 0H8L15.6 36.72L23.2 0H31.2L38.8 36.72L46.4 0H54.4L42.8 56H34.8L27.2 19.28L19.6 56H11.6L0 0Z" fill="#000000"/>
<path d="M59.0837 0H66.7638V56H59.0837V0Z" fill="#000000"/>
<path d="M75.7244 0H83.4044V56H75.7244V0Z" fill="#000000"/>
<path d="M92.365 56V0H100.045L114.285 36.4V0H121.965V56H114.285L100.045 19.6V56H92.365Z" fill="#000000"/>
<path d="M130.959 56H157.359V48.32H138.639V30.32H148.559V22.64H138.639V7.68H153.359V0H130.959V56Z" fill="#000000"/>
</svg>
