<svg width="216" height="66" viewBox="0 0 216 66" fill="none" xmlns="http://www.w3.org/2000/svg">
<path d="M9.2 64.4H18.64L35.6 27.92L42.4 64.4H51.76L76.64 8.4H64.16L49.04 46.24L42.8 10.32H33.04L17.12 46.16L12.56 8.4H0L9.2 64.4Z" fill="#1F79CC"/>
<path d="M76.6475 64.4H88.0075L94.0075 22H82.6475L76.6475 64.4ZM81.4475 9.04C81.4475 13.12 84.5675 16.16 89.2075 16.16C94.5675 16.16 98.9675 12.08 99.0475 7.04C99.1275 2.96 96.0075 0 91.4475 0C86.0075 0 81.5275 4.08 81.4475 9.04Z" fill="#1F79CC"/>
<path d="M99.3037 64.4H110.664L116.664 22H105.304L99.3037 64.4ZM104.104 9.04C104.104 13.12 107.224 16.16 111.864 16.16C117.224 16.16 121.624 12.08 121.704 7.04C121.784 2.96 118.664 0 114.104 0C108.664 0 104.184 4.08 104.104 9.04Z" fill="#1F79CC"/>
<path d="M153.714 40.24L150.354 64.4H161.714L165.314 38.8C166.914 28 161.394 21.2 151.314 21.2C145.714 21.2 140.594 23.6 137.714 27.84L138.514 22H127.474L121.554 64.4H132.914L136.834 36.64C139.074 33.76 142.834 32 146.674 32C151.714 32 154.354 35.12 153.714 40.24Z" fill="#1F79CC"/>
<path d="M192.659 65.2C200.499 65.2 207.459 62.32 213.699 56.24L207.859 48.48C203.379 52.64 198.819 54.8 193.859 54.8C187.299 54.8 183.219 51.12 183.299 44.88H215.299C215.299 44.88 215.859 41.92 215.859 40.08C216.259 28.8 208.979 21.2 197.379 21.2C183.299 21.2 172.339 32 172.019 45.76C171.619 57.12 179.619 65.2 192.659 65.2ZM184.979 36.64C187.059 32.48 191.059 30 196.019 30C200.899 30 204.019 32.48 204.819 36.64H184.979Z" fill="#1F79CC"/>
</svg>
