<svg width="125" height="60" viewBox="0 0 125 60" fill="none" xmlns="http://www.w3.org/2000/svg">
<path d="M22.8 41.6H22L18.4 27.2H12.4L8.4 41.6H7.6V4.8H0V60H8.4L14.8 35.2H15.6L22 60H30.4V4.8H22.8V41.6Z" fill="#1F79CC"/>
<path d="M40.6587 9.2H48.2588V0H40.6587V9.2ZM47.8587 60V20H36.2587V26H41.0588V60H47.8587Z" fill="#1F79CC"/>
<path d="M58.1587 9.2H65.7588V0H58.1587V9.2ZM65.3587 60V20H53.7587V26H58.5588V60H65.3587Z" fill="#1F79CC"/>
<path d="M74.2988 60H81.0987V30C81.0987 27.6 82.4587 26 84.8587 26C87.2587 26 88.6988 27.6 88.6988 30V60H95.4987V26.8L88.6988 20H83.8988L79.4987 25.2L77.4987 20H74.2988V60Z" fill="#1F79CC"/>
<path d="M117.342 60L124.942 52.4V45.6H118.143V50C118.143 52.4 116.543 54 114.143 54C111.743 54 110.143 52.4 110.143 50V41.2H124.942V27.2L117.743 20H110.942L103.342 27.6V52.8L110.542 60H117.342ZM118.143 35.6H110.143V30C110.143 27.6 111.743 26 114.143 26C116.543 26 118.143 27.6 118.143 30V35.6Z" fill="#1F79CC"/>
</svg>
