<svg width="167" height="80" viewBox="0 0 167 80" fill="none" xmlns="http://www.w3.org/2000/svg">
<path d="M30.4 55.4667H29.3333L24.5333 36.2667H16.5333L11.2 55.4667H10.1333V6.4H0V80H11.2L19.7333 46.9333H20.8L29.3333 80H40.5333V6.4H30.4V55.4667Z" fill="#1F79CC"/>
<path d="M54.2117 12.2667H64.345V0H54.2117V12.2667ZM63.8117 80V26.6667H48.345V34.6667H54.745V80H63.8117Z" fill="#1F79CC"/>
<path d="M77.545 12.2667H87.6783V0H77.545V12.2667ZM87.145 80V26.6667H71.6783V34.6667H78.0783V80H87.145Z" fill="#1F79CC"/>
<path d="M99.065 80H108.132V40C108.132 36.8 109.945 34.6667 113.145 34.6667C116.345 34.6667 118.265 36.8 118.265 40V80H127.332V35.7333L118.265 26.6667H111.865L105.998 33.6L103.332 26.6667H99.065V80Z" fill="#1F79CC"/>
<path d="M156.457 80L166.59 69.8667V60.8H157.523V66.6667C157.523 69.8667 155.39 72 152.19 72C148.99 72 146.857 69.8667 146.857 66.6667V54.9333H166.59V36.2667L156.99 26.6667H147.923L137.79 36.8V70.4L147.39 80H156.457ZM157.523 47.4667H146.857V40C146.857 36.8 148.99 34.6667 152.19 34.6667C155.39 34.6667 157.523 36.8 157.523 40V47.4667Z" fill="#1F79CC"/>
</svg>
