<svg width="316" height="125" viewBox="0 0 316 125" fill="none" xmlns="http://www.w3.org/2000/svg">
<path d="M82.48 1.6C81.04 6.88 79.28 12.48 77.52 17.6L50.32 98.88L50 47.68H44.4L16.08 96.64L34.96 17.6C36.08 12.64 37.52 7.04 38.96 1.6H28.88L0.560001 123.2H9.84L41.68 68.8L42.48 123.2H51.6L93.04 1.6H82.48Z" fill="black"/>
<path d="M114.149 14.56C118.469 14.56 121.509 11.68 121.509 7.36C121.509 3.04 118.469 0 114.149 0C109.829 0 106.789 3.04 106.789 7.36C106.789 11.68 109.829 14.56 114.149 14.56ZM77.1887 123.2H88.0688C89.1888 117.92 90.6287 112.48 92.2287 107.2L112.869 35.2H102.469C101.189 40.64 100.229 44.48 98.7888 49.76L82.3088 107.2C80.8687 112.32 79.1087 117.92 77.1887 123.2Z" fill="black"/>
<path d="M146.805 14.56C151.125 14.56 154.165 11.68 154.165 7.36C154.165 3.04 151.125 0 146.805 0C142.485 0 139.445 3.04 139.445 7.36C139.445 11.68 142.485 14.56 146.805 14.56ZM109.845 123.2H120.725C121.845 117.92 123.285 112.48 124.885 107.2L145.525 35.2H135.125C133.845 40.64 132.885 44.48 131.445 49.76L114.965 107.2C113.525 112.32 111.765 117.92 109.845 123.2Z" fill="black"/>
<path d="M192.901 33.6C186.341 33.6 180.261 36.32 175.781 41.12L177.221 35.2H167.941C167.461 39.2 166.821 42.56 164.421 50.88L148.421 107.2C146.981 112.48 145.221 117.92 143.301 123.2H154.181C155.461 117.92 156.901 112.48 158.341 107.2L172.261 58.24C175.301 47.68 182.021 42.88 190.501 42.88C200.901 42.88 207.621 49.44 207.621 60C207.621 61.92 207.301 65.76 206.021 70.08L195.461 107.2C193.861 112.64 192.101 117.92 190.341 123.2H201.221C202.341 117.92 203.621 113.12 205.381 107.2L215.461 72.32C216.581 68.64 217.381 64 217.381 60.16C217.381 44.16 206.821 33.6 192.901 33.6Z" fill="black"/>
<path d="M315.294 77.76C315.294 52.64 299.774 33.6 274.814 33.6C249.534 33.6 231.134 52.96 231.134 79.2C231.134 105.44 249.534 124.8 274.814 124.8C285.534 124.8 294.494 121.6 301.214 116.32L295.774 108.48C290.814 112.64 283.774 115.68 274.814 115.68C255.454 115.68 242.334 101.28 241.054 82.24H315.134C315.294 80.64 315.294 80.48 315.294 77.76ZM274.814 42.88C291.934 42.88 303.454 54.4 305.054 72.96H241.374C243.614 55.68 256.254 42.88 274.814 42.88Z" fill="black"/>
</svg>
