<svg width="373" height="125" viewBox="0 0 373 125" fill="none" xmlns="http://www.w3.org/2000/svg">
<path d="M86.04 35.2C84.12 40.64 82.2 45.44 79.96 51.04L64.76 89.92L63 52.64H47.8L25.08 88.32L32.12 50.88C33.08 45.44 34.04 40.48 35.32 35.2H14.84L0.599976 123.2H20.6L48.92 79.2L51.64 123.2H71.32L107.64 35.2H86.04Z" fill="black"/>
<path d="M140.29 24.48C147.49 24.48 152.45 19.36 152.45 12.16C152.45 4.96 147.49 0 140.29 0C133.09 0 128.13 4.96 128.13 12.16C128.13 19.36 133.09 24.48 140.29 24.48ZM98.69 123.2H121.25C122.37 117.92 123.81 112.48 125.41 107.2L146.05 35.2H123.97C122.69 40.64 121.73 44.48 120.29 49.76L103.81 107.2C102.37 112.32 100.61 117.92 98.69 123.2Z" fill="black"/>
<path d="M182.009 24.48C189.209 24.48 194.169 19.36 194.169 12.16C194.169 4.96 189.209 0 182.009 0C174.809 0 169.849 4.96 169.849 12.16C169.849 19.36 174.809 24.48 182.009 24.48ZM140.409 123.2H162.969C164.089 117.92 165.529 112.48 167.129 107.2L187.769 35.2H165.689C164.409 40.64 163.449 44.48 162.009 49.76L145.529 107.2C144.089 112.32 142.329 117.92 140.409 123.2Z" fill="black"/>
<path d="M242.447 33.6C234.927 33.6 229.007 37.12 224.687 42.24L226.287 35.2H207.567C206.767 40.8 205.487 46.4 203.887 52L188.047 107.2C186.447 112.48 184.687 117.92 182.927 123.2H205.487C206.607 117.92 208.207 112.48 209.647 107.2L222.127 63.68C223.887 57.44 228.207 53.76 234.767 53.76C241.647 53.76 246.767 58.24 246.767 65.76C246.767 67.84 246.287 71.04 245.487 73.92L236.047 107.2C234.607 112.48 232.687 117.92 230.927 123.2H253.647C254.767 117.92 256.367 112.48 257.807 107.2L266.607 76C268.207 70.4 268.687 65.76 268.687 62.56C268.687 44.96 256.527 33.6 242.447 33.6Z" fill="black"/>
<path d="M372.276 79.68C372.276 52.64 352.756 33.6 328.116 33.6C301.236 33.6 281.716 52.96 281.716 79.2C281.716 105.44 300.756 124.8 328.116 124.8C341.076 124.8 351.476 121.12 358.996 114.88L346.036 97.92C342.676 100.8 336.916 104.16 328.116 104.16C316.116 104.16 307.156 97.12 304.436 86.4H372.116C372.276 84.8 372.276 80.48 372.276 79.68ZM327.796 54.56C339.156 54.56 347.636 61.92 348.756 72.16H304.436C307.156 61.12 316.116 54.56 327.796 54.56Z" fill="black"/>
</svg>
