<svg width="362" height="125" viewBox="0 0 362 125" fill="none" xmlns="http://www.w3.org/2000/svg">
<path d="M83.68 1.6C82.24 6.88 80.64 12.48 79.04 17.6L60.32 79.84L60.48 47.68H47.84L28.96 80.48L46.08 17.44C47.84 11.2 48.96 7.04 50.4 1.6H30.4L0 123.2H19.84L47.04 75.52L47.2 123.2H65.76L105.12 1.6H83.68Z" fill="black"/>
<path d="M129.196 24.48C136.396 24.48 141.356 19.36 141.356 12.16C141.356 4.96 136.396 0 129.196 0C121.996 0 117.036 4.96 117.036 12.16C117.036 19.36 121.996 24.48 129.196 24.48ZM87.5963 123.2H110.156C111.276 117.92 112.716 112.48 114.316 107.2L134.956 35.2H112.876C111.596 40.64 110.636 44.48 109.196 49.76L92.7163 107.2C91.2763 112.32 89.5163 117.92 87.5963 123.2Z" fill="black"/>
<path d="M170.915 24.48C178.115 24.48 183.075 19.36 183.075 12.16C183.075 4.96 178.115 0 170.915 0C163.715 0 158.755 4.96 158.755 12.16C158.755 19.36 163.715 24.48 170.915 24.48ZM129.315 123.2H151.875C152.995 117.92 154.435 112.48 156.035 107.2L176.675 35.2H154.595C153.315 40.64 152.355 44.48 150.915 49.76L134.435 107.2C132.995 112.32 131.235 117.92 129.315 123.2Z" fill="black"/>
<path d="M231.354 33.6C223.834 33.6 217.914 37.12 213.594 42.24L215.194 35.2H196.474C195.674 40.8 194.394 46.4 192.794 52L176.954 107.2C175.354 112.48 173.594 117.92 171.834 123.2H194.394C195.514 117.92 197.114 112.48 198.554 107.2L211.034 63.68C212.794 57.44 217.114 53.76 223.674 53.76C230.554 53.76 235.674 58.24 235.674 65.76C235.674 67.84 235.194 71.04 234.394 73.92L224.954 107.2C223.514 112.48 221.594 117.92 219.834 123.2H242.554C243.674 117.92 245.274 112.48 246.714 107.2L255.514 76C257.114 70.4 257.594 65.76 257.594 62.56C257.594 44.96 245.434 33.6 231.354 33.6Z" fill="black"/>
<path d="M361.183 79.68C361.183 52.64 341.663 33.6 317.023 33.6C290.143 33.6 270.622 52.96 270.622 79.2C270.622 105.44 289.663 124.8 317.023 124.8C329.983 124.8 340.383 121.12 347.903 114.88L334.943 97.92C331.583 100.8 325.823 104.16 317.023 104.16C305.023 104.16 296.062 97.12 293.342 86.4H361.023C361.183 84.8 361.183 80.48 361.183 79.68ZM316.703 54.56C328.063 54.56 336.543 61.92 337.663 72.16H293.342C296.062 61.12 305.023 54.56 316.703 54.56Z" fill="black"/>
</svg>
