<svg width="324" height="125" viewBox="0 0 324 125" fill="none" xmlns="http://www.w3.org/2000/svg">
<path d="M84.52 35.2C82.6 40.64 80.52 45.92 78.44 51.04L56.68 105.28L53.48 52.64H46.12L13 104.16L21.64 50.88C22.44 45.6 23.4 40.48 24.52 35.2H14.76L0.519958 123.2H10.6L45.8 68.8L49.16 123.2H59.08L95.4 35.2H84.52Z" fill="black"/>
<path d="M122.524 14.56C126.844 14.56 129.884 11.68 129.884 7.36C129.884 3.04 126.844 0 122.524 0C118.204 0 115.164 3.04 115.164 7.36C115.164 11.68 118.204 14.56 122.524 14.56ZM85.5637 123.2H96.4437C97.5637 117.92 99.0037 112.48 100.604 107.2L121.244 35.2H110.844C109.564 40.64 108.604 44.48 107.164 49.76L90.6837 107.2C89.2437 112.32 87.4837 117.92 85.5637 123.2Z" fill="black"/>
<path d="M155.18 14.56C159.5 14.56 162.54 11.68 162.54 7.36C162.54 3.04 159.5 0 155.18 0C150.86 0 147.82 3.04 147.82 7.36C147.82 11.68 150.86 14.56 155.18 14.56ZM118.22 123.2H129.1C130.22 117.92 131.66 112.48 133.26 107.2L153.9 35.2H143.5C142.22 40.64 141.26 44.48 139.82 49.76L123.34 107.2C121.9 112.32 120.14 117.92 118.22 123.2Z" fill="black"/>
<path d="M201.276 33.6C194.716 33.6 188.636 36.32 184.156 41.12L185.596 35.2H176.316C175.836 39.2 175.196 42.56 172.796 50.88L156.796 107.2C155.356 112.48 153.596 117.92 151.676 123.2H162.556C163.836 117.92 165.276 112.48 166.716 107.2L180.636 58.24C183.676 47.68 190.396 42.88 198.876 42.88C209.276 42.88 215.996 49.44 215.996 60C215.996 61.92 215.676 65.76 214.396 70.08L203.836 107.2C202.236 112.64 200.476 117.92 198.716 123.2H209.596C210.716 117.92 211.996 113.12 213.756 107.2L223.836 72.32C224.956 68.64 225.756 64 225.756 60.16C225.756 44.16 215.196 33.6 201.276 33.6Z" fill="black"/>
<path d="M323.669 77.76C323.669 52.64 308.149 33.6 283.189 33.6C257.909 33.6 239.509 52.96 239.509 79.2C239.509 105.44 257.909 124.8 283.189 124.8C293.909 124.8 302.869 121.6 309.589 116.32L304.149 108.48C299.189 112.64 292.149 115.68 283.189 115.68C263.829 115.68 250.709 101.28 249.429 82.24H323.509C323.669 80.64 323.669 80.48 323.669 77.76ZM283.189 42.88C300.309 42.88 311.829 54.4 313.429 72.96H249.749C251.989 55.68 264.629 42.88 283.189 42.88Z" fill="black"/>
</svg>
