<svg width="352" height="125" viewBox="0 0 352 125" fill="none" xmlns="http://www.w3.org/2000/svg">
<path d="M85.12 35.2C83.2 40.64 81.12 45.76 79.04 51.04L61.92 94.72L59.52 52.64H46.72L20.8 93.28L28.16 50.88C29.12 45.6 29.92 40.48 31.04 35.2H15.2L0.959961 123.2H16.96L47.36 76.16L50.24 123.2H65.92L102.24 35.2H85.12Z" fill="black"/>
<path d="M132.979 20.48C139.059 20.48 143.219 16.32 143.219 10.24C143.219 4.16 139.059 0 132.979 0C126.899 0 122.739 4.16 122.739 10.24C122.739 16.32 126.899 20.48 132.979 20.48ZM93.1387 123.2H111.059C112.179 117.92 113.619 112.48 115.219 107.2L135.859 35.2H118.419C117.139 40.64 116.179 44.48 114.739 49.76L98.2587 107.2C96.6587 112.64 95.0587 117.92 93.1387 123.2Z" fill="black"/>
<path d="M171.104 20.48C177.184 20.48 181.344 16.32 181.344 10.24C181.344 4.16 177.184 0 171.104 0C165.024 0 160.864 4.16 160.864 10.24C160.864 16.32 165.024 20.48 171.104 20.48ZM131.264 123.2H149.184C150.304 117.92 151.744 112.48 153.344 107.2L173.984 35.2H156.544C155.264 40.64 154.304 44.48 152.864 49.76L136.384 107.2C134.784 112.64 133.184 117.92 131.264 123.2Z" fill="black"/>
<path d="M225.869 33.6C217.709 33.6 211.629 36.8 207.469 41.6L208.909 35.2H194.189C193.549 41.28 192.429 47.52 190.669 53.6L175.309 107.2C173.869 112.32 172.109 117.92 170.189 123.2H188.109C189.229 117.92 190.669 112.64 192.269 107.2L205.389 61.12C207.629 53.28 212.909 49.44 220.109 49.44C228.749 49.44 234.189 54.4 234.189 63.84C234.189 66.72 233.549 70.72 232.429 74.56L223.149 107.2C221.549 112.64 219.789 117.92 218.029 123.2H235.789C236.909 117.92 238.509 112.16 239.949 107.2L249.389 74.24C250.669 69.92 251.149 65.6 251.149 61.76C251.149 45.6 241.229 33.6 225.869 33.6Z" fill="black"/>
<path d="M351.155 78.88C351.155 52.64 334.195 33.6 309.235 33.6C283.475 33.6 264.595 52.96 264.595 79.2C264.595 105.44 282.995 124.8 309.235 124.8C321.875 124.8 331.955 120.96 339.155 114.4L328.435 101.12C324.915 104.64 318.195 108.48 309.235 108.48C293.555 108.48 283.475 98.88 281.395 84.64H350.995C351.155 83.04 351.155 80.48 351.155 78.88ZM309.235 49.92C322.675 49.92 331.315 56.32 333.235 69.92H282.195C285.395 57.76 294.995 49.92 309.235 49.92Z" fill="black"/>
</svg>
