<svg width="230" height="800" viewBox="0 0 230 800" fill="none" xmlns="http://www.w3.org/2000/svg">
	<path d="M228.108 487.522C228.108 443.202 218.679 399.829 203.602 358.336C195.12 334.762 184.751 312.129 176.269 288.554C162.132 249.891 154.59 209.347 152.703 166.914C152.703 159.37 152.703 151.825 151.763 143.34V144.281C150.823 122.594 150.823 100.901 150.823 80.162V56.5877V53.7593C150.823 49.9903 152.71 47.1553 153.65 43.3863C153.65 41.4985 154.59 40.5579 154.59 38.6701V24.5282C154.59 21.6998 152.703 18.8714 151.763 15.0958C150.823 13.208 150.823 10.3796 150.823 8.4918C150.823 4.72277 148.936 2.83498 146.108 1.8878C142.341 0.947201 136.679 0 132.912 0H94.2624C90.4947 0 87.6608 0.9406 83.8931 1.8878C80.1255 2.8284 78.2384 4.71621 79.1787 8.4918C79.1787 10.3796 79.1787 13.208 78.2384 15.0958C77.2982 17.9242 76.3513 20.7526 75.411 24.5282V38.6701C75.411 40.5579 76.3513 41.4985 76.3513 43.3863C77.2915 47.1553 79.1787 50.9309 79.1787 54.7C79.1787 84.8784 78.2384 114.109 77.2915 144.281V159.37C76.3513 171.63 75.4045 184.832 74.4642 197.085C68.8094 242.346 56.5526 285.726 37.7017 327.217C12.2491 382.851 0 440.372 0 500.724V716.664C0 733.634 0.940243 750.611 1.8871 767.581C2.82735 781.723 9.42897 789.268 22.6249 792.097C25.4523 793.038 29.2265 793.038 32.0539 793.985C73.5311 799.642 114.061 801.529 155.536 798.701C172.5 797.76 189.471 794.932 206.435 793.044C218.691 791.157 225.286 784.559 227.173 771.358C229.06 760.044 230 748.725 230 737.411C229.047 655.374 229.047 571.449 228.106 487.523L228.108 487.522Z"/>
</svg>