<svg width="481" height="135" viewBox="0 0 481 135" fill="none" xmlns="http://www.w3.org/2000/svg">
<path d="M188 0.122702C175.514 1.67065 163.331 11.933 160.529 24.2238C157.746 36.4331 165.011 51.338 179 50.0247C191.4 48.8607 204.186 40.2712 205.815 27.2238C207.178 16.3066 202.343 -1.6555 188 0.122702ZM479 75.2238H450C448.387 83.9085 448.511 94.7596 440.956 100.805C439.191 102.218 437.154 103.132 435 103.776C419.688 108.359 413.757 91.1956 412.286 79.2238C411.858 75.7408 411.218 70.6535 412.603 67.3334C414.825 62.0101 427.993 63.2487 433 63.2246C444.559 63.1688 456.53 64.1542 468 62.6482C471.104 62.2406 475.993 63.0739 478.643 61.196C481.177 59.3999 480.06 55.8237 480.078 53.2238C480.127 46.1566 481.063 41.0971 478.385 34.2238C476.302 28.8778 474.174 23.0462 471.034 18.2238C463.866 7.21635 456.068 5.71285 444 5.18443C437.325 4.89213 431.608 4.30836 425 6.15125C415.347 8.84324 404.161 17.2397 397.3 24.3974C382.47 39.8689 381.547 61.3163 382.91 81.2238C383.472 89.4253 382.689 97.2196 385.22 105.224C386.215 108.372 387.722 111.425 389.468 114.223C400 131.105 422.368 124.831 439 125.239C449.399 125.493 462.117 127.627 470.671 119.692C474.457 116.179 475.754 111.094 476.789 106.224C478.916 96.2243 479 85.4248 479 75.2238ZM303 20.2238C303 17.1112 304.04 11.489 301.397 9.21221C298.293 6.53873 287.753 5.53831 286.318 10.3719C285.411 13.4276 286.102 17.061 285.714 20.2238C284.728 28.2513 283.503 36.1491 282.911 44.2238C281.511 63.3302 279 82.0058 279 101.224C279 106.521 279.332 111.947 278.83 117.224C278.422 121.51 276.866 126.93 278.742 131.076C279.575 132.916 281.067 133.812 283.044 133.986C288.106 134.43 294.894 132.508 300 131.799C301.964 131.526 304.782 131.5 306.397 130.2C310.111 127.212 308.862 117.505 309.424 113.224C311.706 95.857 311 77.74 311 60.2238C311 55.5693 311.19 50.8674 310.835 46.2238C310.671 44.0766 310.042 41.5995 311.643 39.8125C313.48 37.7616 317.43 37.4204 320 37.3527C323.862 37.2508 330.698 37.8935 332.972 41.5023C335.845 46.0607 334.238 55.0982 334.039 60.2238C333.479 74.5771 332.589 88.8701 331.961 103.224C331.766 107.665 329.76 112.782 330.488 117.18C330.89 119.607 332.635 121.176 335.019 121.621C337.568 122.096 340.419 121.274 343 121.243C348.557 121.175 357.553 124.235 362.397 120.211C364.95 118.09 363.852 113.148 364.325 110.224C365.958 100.135 366 90.4809 366 80.2238C366 66.5687 368.187 50.0743 362.662 37.2238C360.688 32.632 357.929 27.207 353.816 24.1929C350.067 21.4468 345.425 20.5732 341 19.5733C328.786 16.8136 314.803 15.5598 303 20.2238ZM0 8.22378C1.48371 16.2157 1.65731 24.2234 3.42438 32.2238C8.02864 53.0696 14.9022 73.3092 19.3387 94.2238C21.1163 102.604 24.1535 110.06 26.561 118.224C27.3268 120.821 27.3063 125.414 29.5995 127.196C31.9316 129.009 36.254 128.171 39 128.239C45.688 128.403 52.2688 129.224 59 129.224C62.986 112.404 70.6465 95.1156 77.4275 79.2238C79.9711 73.2626 83.2048 67.458 85 61.2238C88.9674 70.4451 89.1067 80.4114 90.1736 90.2238C90.8303 96.2631 92.7513 102.174 93.5748 108.224C94.2075 112.872 92.583 119.697 94.7423 123.905C96.3379 127.015 100.272 125.649 103 125.394C108.613 124.868 114.365 124.318 120 124.221C122.943 124.17 126.75 124.375 128.697 121.71C130.55 119.173 130.743 115.22 131.247 112.224C132.368 105.558 133.3 98.9152 134.181 92.2238C136.479 74.756 141.791 57.6389 144.59 40.2238C145.505 34.5286 146.765 28.9051 147.75 23.2238C148.13 21.0316 149.199 17.8189 148.307 15.6574C147.439 13.554 144.945 13.412 142.995 13.2639C138.228 12.9018 133.722 11.8596 129 11.2238C125.063 25.2346 123.563 39.9869 120.547 54.2238C118.33 64.6868 114.41 74.8082 112 85.2238C105.913 73.6262 103.763 58.7883 100.036 46.2238C98.938 42.5211 98.8213 37.7981 96.6968 34.5023C93.669 29.8055 82.9995 30.6753 78.0039 30.4128C76.001 30.3076 74.1349 30.5151 72.5293 31.8272C69.4781 34.3208 68.0026 38.8656 66.1389 42.2238C62.163 49.3878 57.4098 56.069 53.439 63.2238C51.2819 67.1107 50.3129 71.1737 47 74.2238C47 57.9912 43.439 41.7584 39 26.2238C37.8245 22.1102 37.3671 13.8225 33.5702 11.2516C30.7677 9.35388 26.1955 10.3531 23 10.1343C15.3222 9.60848 7.71207 8.24507 0 8.22378ZM240 10.6883C232.658 12.012 220.081 16.876 217.009 24.2392C211.589 37.2318 223.269 53.1036 237 50.899C245.53 49.5295 260.001 45.5863 264.181 37.1196C271.653 21.9863 253.761 8.20729 240 10.6883ZM415 44.2238C415.042 39.1753 415.104 32.6792 418.009 28.3318C422.361 21.8187 439.855 18.3475 446.61 22.5417C450.354 24.8672 455.872 36.6422 451.397 40.196C449.271 41.884 445.51 41.1408 443 41.2639C439.238 41.4485 435.737 42.8241 432 43.1304C426.361 43.5928 420.661 44.2082 415 44.2238ZM165 130.224C175.109 133.24 187.677 133.14 198 131.224C198 121.233 198.23 111.212 197.985 101.224C197.886 97.1863 196.86 93.2698 197.289 89.2238C197.962 82.8858 197.897 76.5458 198.718 70.2238C199.069 67.521 200.349 63.1421 199.307 60.5417C198.32 58.0786 195.189 58.2698 192.999 58.2284C188.085 58.1355 174.339 55.8899 171.318 60.5417C167.97 65.6959 170.313 75.3431 169.91 81.2238C169.132 92.5878 167.249 103.887 166.17 115.224C165.688 120.287 165.935 125.186 165 130.224ZM230.318 59.2871C227.969 60.7546 228.054 63.7898 228.005 66.2238C227.895 71.584 227.305 76.8791 226.911 82.2238C226.014 94.4054 224 105.909 224 118.224C224 121.409 222.792 127.92 225.603 130.2C229.675 133.501 239.112 132.224 244 132.224C247.789 132.224 256.299 133.799 259.357 131.196C261.231 129.601 260.254 126.309 260.074 124.224C259.584 118.546 258.479 112.906 258.09 107.224C257.294 95.6019 258.47 83.8608 257.961 72.2238C257.823 69.0805 258.057 61.5089 255.397 59.4028C252.236 56.9011 244.788 58.1385 241 58.2593C238.017 58.3544 232.912 57.6666 230.318 59.2871Z" fill="#1F79CC"/>
</svg>
