<?xml version="1.0" standalone="yes"?>
<svg xmlns="http://www.w3.org/2000/svg" width="794" height="135">
<path style="fill:rgba(31, 121, 204, 1); stroke:none;" d="M189 0.898926C176.514 2.44687 164.331 12.7092 161.529 25C158.746 37.2093 166.011 52.1142 180 50.8009C192.4 49.6369 205.186 41.0474 206.815 28C208.178 17.0828 203.343 -0.879272 189 0.898926M480 76L451 76C449.387 84.6847 449.511 95.5358 441.956 101.581C440.191 102.994 438.154 103.908 436 104.552C420.688 109.135 414.757 91.9718 413.286 80C412.858 76.517 412.218 71.4297 413.603 68.1096C415.825 62.7863 428.993 64.0249 434 64.0008C445.559 63.945 457.53 64.9304 469 63.4244C472.104 63.0168 476.993 63.8501 479.643 61.9722C482.177 60.1761 481.06 56.5999 481.078 54C481.127 46.9328 482.063 41.8733 479.385 35C477.302 29.654 475.174 23.8224 472.034 19C464.866 7.99257 457.068 6.48907 445 5.96065C438.325 5.66835 432.608 5.08458 426 6.92747C416.347 9.61946 405.161 18.0159 398.3 25.1736C383.47 40.6451 382.547 62.0925 383.91 82C384.472 90.2015 383.689 97.9958 386.22 106C387.215 109.148 388.722 112.201 390.468 114.999C401 131.881 423.368 125.607 440 126.015C450.399 126.269 463.117 128.403 471.671 120.468C475.457 116.955 476.754 111.87 477.789 107C479.916 97.0005 480 86.201 480 76M304 21C304 17.8874 305.04 12.2652 302.397 9.98843C299.293 7.31495 288.753 6.31453 287.318 11.1481C286.411 14.2038 287.102 17.8372 286.714 21C285.728 29.0275 284.503 36.9253 283.911 45C282.511 64.1064 280 82.782 280 102C280 107.297 280.332 112.723 279.83 118C279.422 122.286 277.866 127.706 279.742 131.852C280.575 133.692 282.067 134.588 284.044 134.762C289.106 135.206 295.894 133.284 301 132.575C302.964 132.302 305.782 132.276 307.397 130.976C311.111 127.988 309.862 118.281 310.424 114C312.706 96.6332 312 78.5162 312 61C312 56.3455 312.19 51.6436 311.835 47C311.671 44.8528 311.042 42.3757 312.643 40.5887C314.48 38.5378 318.43 38.1966 321 38.1289C324.862 38.027 331.698 38.6697 333.972 42.2785C336.845 46.8369 335.238 55.8744 335.039 61C334.479 75.3533 333.589 89.6463 332.961 104C332.766 108.441 330.76 113.558 331.488 117.956C331.89 120.383 333.635 121.952 336.019 122.397C338.568 122.872 341.419 122.05 344 122.019C349.557 121.951 358.553 125.011 363.397 120.987C365.95 118.866 364.852 113.924 365.325 111C366.958 100.911 367 91.2571 367 81C367 67.3449 369.187 50.8505 363.662 38C361.688 33.4082 358.929 27.9832 354.816 24.9691C351.067 22.223 346.425 21.3494 342 20.3495C329.786 17.5898 315.803 16.336 304 21M1 9C2.48371 16.9919 2.65731 24.9996 4.42438 33C9.02864 53.8458 15.9022 74.0854 20.3387 95C22.1163 103.38 25.1535 110.836 27.561 119C28.3268 121.597 28.3063 126.19 30.5995 127.972C32.9316 129.785 37.254 128.947 40 129.015C46.688 129.179 53.2688 130 60 130C63.986 113.18 71.6465 95.8918 78.4275 80C80.9711 74.0388 84.2048 68.2342 86 62C89.9674 71.2213 90.1067 81.1876 91.1736 91C91.8303 97.0393 93.7513 102.95 94.5748 109C95.2075 113.648 93.583 120.473 95.7423 124.681C97.3379 127.791 101.272 126.425 104 126.17C109.613 125.644 115.365 125.094 121 124.997C123.943 124.946 127.75 125.151 129.697 122.486C131.55 119.949 131.743 115.996 132.247 113C133.368 106.334 134.3 99.6914 135.181 93C137.479 75.5322 142.791 58.4151 145.59 41C146.505 35.3048 147.765 29.6813 148.75 24C149.13 21.8078 150.199 18.5951 149.307 16.4336C148.439 14.3302 145.945 14.1882 143.995 14.0401C139.228 13.678 134.722 12.6358 130 12C126.063 26.0108 124.563 40.7631 121.547 55C119.33 65.463 115.41 75.5844 113 86C106.913 74.4024 104.763 59.5645 101.036 47C99.938 43.2973 99.8213 38.5743 97.6968 35.2785C94.669 30.5817 83.9995 31.4515 79.0039 31.189C77.001 31.0838 75.1349 31.2913 73.5293 32.6034C70.4781 35.097 69.0026 39.6418 67.1389 43C63.163 50.164 58.4098 56.8452 54.439 64C52.2819 67.8869 51.3129 71.9499 48 75C48 58.7674 44.439 42.5346 40 27C38.8245 22.8864 38.3671 14.5987 34.5702 12.0278C31.7677 10.1301 27.1955 11.1293 24 10.9105C16.3222 10.3847 8.71207 9.02129 1 9M241 11.4645C233.658 12.7882 221.081 17.6522 218.009 25.0154C212.589 38.008 224.269 53.8798 238 51.6752C246.53 50.3057 261.001 46.3625 265.181 37.8958C272.653 22.7625 254.761 8.98351 241 11.4645M416 45C416.042 39.9515 416.104 33.4554 419.009 29.108C423.361 22.5949 440.855 19.1237 447.61 23.3179C451.354 25.6434 456.872 37.4184 452.397 40.9722C450.271 42.6602 446.51 41.917 444 42.0401C440.238 42.2247 436.737 43.6003 433 43.9066C427.361 44.369 421.661 44.9844 416 45M166 131C176.109 134.016 188.677 133.916 199 132C199 122.009 199.23 111.988 198.985 102C198.886 97.9625 197.86 94.046 198.289 90C198.962 83.662 198.897 77.322 199.718 71C200.069 68.2972 201.349 63.9183 200.307 61.3179C199.32 58.8548 196.189 59.046 193.999 59.0046C189.085 58.9117 175.339 56.6661 172.318 61.3179C168.97 66.4721 171.313 76.1193 170.91 82C170.132 93.364 168.249 104.663 167.17 116C166.688 121.063 166.935 125.962 166 131M231.318 60.0633C228.969 61.5308 229.054 64.566 229.005 67C228.895 72.3602 228.305 77.6553 227.911 83C227.014 95.1816 225 106.685 225 119C225 122.185 223.792 128.696 226.603 130.976C230.675 134.277 240.112 133 245 133C248.789 133 257.299 134.575 260.357 131.972C262.231 130.377 261.254 127.085 261.074 125C260.584 119.322 259.479 113.682 259.09 108C258.294 96.3781 259.47 84.637 258.961 73C258.823 69.8567 259.057 62.2851 256.397 60.179C253.236 57.6773 245.788 58.9147 242 59.0355C239.017 59.1306 233.912 58.4428 231.318 60.0633z"/>
</svg>
