<svg width="246" height="74" viewBox="0 0 246 74" fill="none" xmlns="http://www.w3.org/2000/svg">
<path d="M7.73333 27.3333L21.6667 73.1333H39.5333C40.3333 62.3333 43.3333 50.1333 47.6 37.6L54 73.1333H73.2C74.6 54.5333 82.5333 31.6667 92.1333 10.4667H66C72.5333 26.0667 73.2667 40.1333 68.6 60.6L53.7333 10.4667H32.3333C38.8667 26.0667 39.6 40.1333 34.9333 60.6L20.0667 10.4667H0C2.33333 12.4 4.86667 18 7.73333 27.3333Z" fill="#1F79CC"/>
<path d="M96.5698 38.4667L97.5031 73.1333H118.77C115.103 65.9333 113.103 59.0667 112.77 47L111.903 19.8H91.3698C94.7031 24.9333 96.3698 29.8667 96.5698 38.4667ZM93.5031 8.66667C94.6365 13.6 99.7698 17.4 105.103 17.4C110.503 17.4 113.903 13.6 112.836 8.66667C111.703 3.8 106.57 0 101.236 0C95.8365 0 92.4365 3.8 93.5031 8.66667Z" fill="#1F79CC"/>
<path d="M125.007 38.4667L125.941 73.1333H147.207C143.541 65.9333 141.541 59.0667 141.207 47L140.341 19.8H119.807C123.141 24.9333 124.807 29.8667 125.007 38.4667ZM121.941 8.66667C123.074 13.6 128.207 17.4 133.541 17.4C138.941 17.4 142.341 13.6 141.274 8.66667C140.141 3.8 135.007 0 129.674 0C124.274 0 120.874 3.8 121.941 8.66667Z" fill="#1F79CC"/>
<path d="M150.803 73.1333H176.27C172.936 68 171.27 63.0667 171.07 54.4667L170.736 41.8C170.67 37.9333 170.27 28.4 176.403 28.4C179.336 28.4 180.603 30.5333 180.803 36.8L181.936 73.1333H203.536C200.87 67.4667 198.336 62.1333 197.136 52.7333L194.603 32.6667C194.07 28.4 192.936 19.1333 182.536 19.1333C176.403 19.1333 172.136 22.3333 170.27 27.4L170.07 19.8H149.403C152.736 24.9333 154.403 29.8667 154.603 38.4667L155.07 54.4667C155.27 63.0667 154.136 68 150.803 73.1333Z" fill="#1F79CC"/>
<path d="M226.507 73.8C241.841 73.8 249.107 58.8667 242.974 39.9333C242.041 50.5333 237.907 56.4667 231.241 56.4667C224.174 56.4667 218.174 49.5333 216.107 41.0667L244.107 37.1333C241.574 29.0667 234.907 19.1333 223.174 19.1333C211.574 19.1333 203.841 29.0667 203.841 45.0667C203.841 62.3333 212.907 73.8 226.507 73.8ZM215.107 35.4667C214.507 29.8 216.374 26.6 219.574 26.6C223.041 26.6 225.374 30.4 225.841 34.8667L215.107 35.4667Z" fill="#1F79CC"/>
</svg>
