<svg width="124" height="56" viewBox="0 0 124 56" fill="none" xmlns="http://www.w3.org/2000/svg">
<path d="M27.92 0V56H19.2L14 41.92L8.72 56H0V0H8.72V35.76L12.24 27.92H15.68L19.2 35.76V0H27.92Z" fill="#1F79CC"/>
<path d="M35.3125 56V0H44.0325V56H35.3125Z" fill="#1F79CC"/>
<path d="M51.4062 56V0H60.1263V56H51.4062Z" fill="#1F79CC"/>
<path d="M95.42 0V56H86.7L76.22 25.44V56H67.5V0H76.22L86.7 30.56V0H95.42Z" fill="#1F79CC"/>
<path d="M111.533 8.8V23.52H119.373V32.4H111.533V47.12H123.772V56L102.812 55.92V0H123.772V8.8H111.533Z" fill="#1F79CC"/>
</svg>
