<svg width="497" height="133" viewBox="0 0 497 133" fill="none" xmlns="http://www.w3.org/2000/svg">
<path d="M6.68067 126.752C11.6737 128.938 16.6667 128.001 21.3477 123.943C23.2201 122.069 25.4046 119.26 49.4335 91.7862C57.2352 83.6691 61.292 84.6057 63.1644 95.5326C64.7247 105.211 66.285 114.577 69.7177 123.318C74.3987 134.87 87.1934 136.43 94.6829 126.128C99.3639 119.884 146.174 25.6002 148.982 15.9221C150.855 10.6147 148.046 4.68297 143.365 2.18539C130.258 -3.43418 124.329 14.6733 111.222 42.1467C99.988 66.186 92.8105 81.7959 87.5054 80.8593C81.5762 79.9227 82.5124 62.7518 78.4556 55.5712C74.0867 47.1419 65.973 44.9565 58.1714 49.6395C53.4904 52.137 46.0008 60.5664 42.2561 63.6884C39.4475 65.8738 35.7027 63.6884 35.7027 60.5664C35.7027 54.0102 41.0078 28.41 42.8802 17.4831C45.0646 8.11715 40.3837 0.312197 32.27 0C26.3407 0 21.9718 4.68297 20.0995 14.0489C17.2909 28.41 7.3048 84.2934 1.68764 103.962C-1.74507 115.825 0.127314 123.63 6.68067 126.752Z" fill="rgba(31, 121, 204, 1)"/>
<path d="M162.522 90.2252C157.529 104.586 150.351 122.069 163.77 125.504C175.628 129.562 179.061 113.952 187.487 89.6008C194.664 68.6836 202.778 49.0151 207.459 27.4734C210.268 14.9855 208.083 8.11715 200.594 6.55615C195.601 5.30736 190.295 8.42935 187.487 14.3611C184.99 20.9173 173.444 62.4396 162.522 90.2252Z" fill="rgba(31, 121, 204, 1)"/>
<path d="M221.552 90.2252C216.559 104.586 209.381 122.069 222.8 125.504C234.659 129.562 238.091 113.952 246.517 89.6008C253.695 68.6836 261.808 49.0151 266.489 27.4734C269.298 14.9855 267.113 8.11715 259.624 6.55615C254.631 5.30736 249.326 8.42935 246.517 14.3611C244.021 20.9173 232.474 62.4396 221.552 90.2252Z" fill="rgba(31, 121, 204, 1)"/>
<path d="M282.142 126.752C288.696 128.313 293.689 123.943 296.185 115.201C300.554 99.9033 307.732 76.8007 315.221 61.503C317.094 57.7566 322.087 58.0688 323.647 62.1274C333.633 102.713 334.257 112.703 339.874 120.508C343.307 125.191 347.676 127.377 352.045 127.377C356.414 127.377 360.159 124.567 362.031 119.884C365.776 110.206 368.584 101.777 371.081 94.596C383.251 59.942 386.684 49.3273 398.543 26.2246C399.791 23.4148 400.727 20.9173 400.727 18.7319C401.039 11.5513 394.798 7.18055 390.117 7.18055C386.996 7.18055 384.812 8.11715 382.627 9.67813C376.698 14.6733 369.833 31.8442 363.591 49.0151C358.91 61.503 357.35 67.747 353.293 67.747C349.86 67.747 348.924 65.5616 347.364 60.8786L344.555 49.3273C341.747 35.2783 335.818 13.7367 331.449 8.42934C328.64 4.99516 324.895 3.12199 320.838 3.43418C308.044 3.43418 298.682 36.8394 287.135 69.308C280.582 86.1666 273.405 110.518 273.405 114.889C273.405 120.821 277.149 125.504 282.142 126.752Z" fill="rgba(31, 121, 204, 1)"/>
<path d="M423.515 129.25C427.572 129.25 461.899 125.816 466.892 123.318C471.573 120.821 474.069 116.138 473.133 111.767C470.325 97.4058 458.466 104.899 438.806 104.899C433.189 104.899 430.693 102.089 431.005 97.0936C431.629 93.035 432.253 88.6642 433.189 84.9178C434.749 79.2983 436.934 77.7373 443.175 77.4251C458.778 75.8641 474.069 78.6739 473.445 64.0006C472.197 53.0737 463.147 54.3224 449.728 53.0736C445.36 52.4492 443.487 49.3273 444.735 45.5809C445.984 40.5857 447.544 35.9028 448.792 30.5954C450.353 24.3514 453.785 23.4148 459.715 24.0392C476.878 26.849 499.035 28.0978 496.85 13.7367C495.914 0.936581 473.133 0.624397 452.225 0.624397C440.054 3.24209e-06 433.813 4.99517 428.196 19.6685C425.075 27.1612 413.529 66.8103 410.72 79.6105C408.536 89.913 406.351 100.216 406.351 110.83C406.351 122.382 411.969 128.313 423.515 129.25Z" fill="rgba(31, 121, 204, 1)"/>
</svg>
