<svg width="235" height="63" viewBox="0 0 235 63" fill="none" xmlns="http://www.w3.org/2000/svg">
<path d="M26.48 61.92C33.6 61.92 34.4 62.24 36 55.36C40 39.36 39.44 41.92 41.36 34.16C42.08 31.36 41.92 29.76 43.2 29.76C44.24 29.76 44.08 30.96 44.88 34.32C45.6 37.44 48.08 45.76 50.48 55.76C52.08 62.16 53.92 61.92 61.12 61.92C68.64 61.92 69.84 62.56 71.44 55.84C74.8 42.08 77.84 29.28 80.08 20.4C80.88 17.2 80.8 16.48 82.88 15.36C84.96 14.32 86.24 13.92 86.24 10.56C86.24 5.68 84.56 4.8 77.6 4.8C66.96 4.8 64.8 5.68 64.8 10.48C64.8 13.68 66.32 14.16 68.24 14.96C70.16 16 70.32 16.24 69.52 20.24C68.4 26 66.88 31.36 64.24 41.68C63.28 45.36 63.52 47.2 61.84 47.2C60.4 47.2 60.48 44.96 59.68 41.04C58.56 35.6 55.36 24.88 54.16 18.88C53.76 15.92 54.08 15.44 55.52 14.96C57.2 14.24 58.4 13.36 58.4 10.24C58.4 5.44 56.08 4.8 46.24 4.8C35.04 4.8 33.12 5.68 33.12 10.48C33.12 13.2 34.24 14.16 36.32 14.88C37.84 15.52 38.24 16.48 37.44 20.32C36.4 24.56 34.48 31.36 32.24 40.8C31.12 45.44 31.12 47.2 29.52 47.2C28.08 47.2 28.24 45.28 27.28 41.52C25.84 35.68 22.96 25.44 21.6 19.28C21.04 16.48 21.68 15.76 23.2 14.96C24.8 14.4 26.32 13.84 26.32 10.32C26.32 5.6 23.6 4.8 14.08 4.8C2.4 4.8 0 5.68 0 11.2C0 13.76 1.04 14.72 3.04 15.84C4.8 16.96 5.52 17.76 6.48 22.08C8.88 33.04 12.56 46.16 15.44 55.84C17.28 62.48 18.4 61.92 26.48 61.92Z" fill="#1F79CC"/>
<path d="M100.856 13.36C106.456 13.36 109.016 10.88 109.016 7.04C109.016 2.96 106.216 0 100.456 0C94.8563 0 91.9762 3.04 91.9762 6.96C91.9762 10.96 95.4162 13.36 100.856 13.36ZM100.936 61.6C109.656 61.6 111.976 60.56 111.976 56.8C111.976 54.24 111.016 53.12 109.016 52C107.176 50.88 107.016 49.84 106.856 47.28C106.696 42.16 106.616 38.88 106.696 35.84C106.696 31.04 107.976 27.68 107.976 23.68C107.976 19.6 106.136 17.68 100.776 17.68C97.6563 17.68 95.3363 18.56 92.4563 20.64C89.8163 22.48 88.2962 24.16 88.2962 26.56C88.2962 28.4 89.4962 29.12 92.8562 29.12C94.3762 29.12 94.8562 29.52 94.8562 31.76C94.8562 36.64 94.9363 42.88 94.7763 46.72C94.6163 50 93.9762 51.04 91.8962 52.24C89.3362 53.52 88.7762 55.2 88.7762 56.8C88.7762 62 91.8962 61.68 100.936 61.6Z" fill="#1F79CC"/>
<path d="M127.106 13.36C132.706 13.36 135.266 10.88 135.266 7.04C135.266 2.96 132.466 0 126.706 0C121.106 0 118.226 3.04 118.226 6.96C118.226 10.96 121.666 13.36 127.106 13.36ZM127.186 61.6C135.906 61.6 138.226 60.56 138.226 56.8C138.226 54.24 137.266 53.12 135.266 52C133.426 50.88 133.266 49.84 133.106 47.28C132.946 42.16 132.866 38.88 132.946 35.84C132.946 31.04 134.226 27.68 134.226 23.68C134.226 19.6 132.386 17.68 127.026 17.68C123.906 17.68 121.586 18.56 118.706 20.64C116.066 22.48 114.546 24.16 114.546 26.56C114.546 28.4 115.746 29.12 119.106 29.12C120.626 29.12 121.106 29.52 121.106 31.76C121.106 36.64 121.186 42.88 121.026 46.72C120.866 50 120.226 51.04 118.146 52.24C115.586 53.52 115.026 55.2 115.026 56.8C115.026 62 118.146 61.68 127.186 61.6Z" fill="#1F79CC"/>
<path d="M153.916 61.36C163.036 61.36 164.396 60.88 164.396 56.56C164.396 54.48 163.596 53.28 161.516 51.92C159.916 50.8 159.836 50.16 159.836 46.72V39.6C159.836 33.36 162.236 27.6 168.556 27.6C172.716 27.6 174.156 30.24 174.156 34.8V46.4C174.156 49.76 173.916 50.8 171.916 52.16C169.836 53.36 169.116 54.4 169.116 56.64C169.116 60.88 170.556 61.36 179.676 61.36C190.316 61.36 191.916 60.88 191.916 56.96C191.916 54.96 190.876 53.52 188.716 52.24C186.556 51.04 186.236 49.84 186.236 45.76C186.236 39.76 186.796 35.44 186.796 30.24C186.796 22.32 181.036 17.04 172.236 17.04C166.956 17.04 163.676 19.2 161.836 21.36C159.676 24 159.676 25.2 158.556 25.2C157.436 25.2 157.836 23.52 157.836 21.84C157.836 19.12 155.836 17.36 152.156 17.36C149.756 17.36 147.276 18.4 144.876 20.08C141.676 22.32 140.396 24.24 140.396 26.08C140.396 28.88 142.156 29.44 145.036 29.44C147.436 29.52 148.076 29.76 148.076 32.16V46.16C148.076 49.6 147.516 50.4 144.876 51.84C142.556 53.2 141.596 54.8 141.596 57.04C141.596 60.88 143.196 61.36 153.916 61.36Z" fill="#1F79CC"/>
<path d="M215.307 62.72C224.267 62.72 231.147 58.72 232.747 52.56C233.307 50.48 233.148 48.32 231.467 48.32C230.588 48.32 229.707 48.96 228.587 49.52C226.587 50.56 223.707 51.76 218.667 51.76C211.147 51.76 205.627 48.16 205.548 44.24C205.468 42.96 205.868 42.56 207.148 42.56H227.628C233.788 42.56 234.988 41.68 234.988 36.32C234.988 24.24 227.387 16.8 215.387 16.8C200.907 16.8 193.307 28.24 193.307 40.64C193.307 53.44 202.187 62.72 215.307 62.72ZM211.628 35.52C206.508 35.52 205.788 36 205.708 34.72C205.468 29.2 208.987 25.52 213.548 25.52C218.667 25.52 222.587 29.52 222.587 33.92C222.587 36 221.708 35.52 211.628 35.52Z" fill="#1F79CC"/>
</svg>
