<?xml version="1.0" standalone="yes"?>
<svg xmlns="http://www.w3.org/2000/svg" width="794" height="176">
<path style="fill:rgba(31, 121, 204, 1); stroke:none;" d="M1 0C4.39685 43.0426 10.0103 86.0176 14.1698 129C15.6497 144.293 18.341 159.651 19 175L83 175C85.34 145.35 90.7243 115.713 92 86L95 86C95.6138 115.739 103.918 145.254 104 175L156 175C160.706 175 171.561 177.01 175.397 173.972C177.938 171.96 177.539 165.006 177.83 162C178.923 150.712 180.405 139.321 181.035 128C182.891 94.6722 187.954 61.23 191.17 28C192.068 18.7146 193.807 9.32883 194 0L140 0C138.832 27.2022 134.918 54.9569 131.715 82C130.233 94.5092 128.104 107.402 128 120L122 120C121.897 82.5848 111.772 45.4041 111 8L56 8C55.6904 45.3969 45.1032 82.5915 45 120L39 120C38.8902 106.736 36.5779 93.1889 35.1659 80C32.3159 53.3791 29.1058 26.6829 27 0L1 0M199 0L199 62L234 62L234 113L199 113L199 175L294 175L294 113L259 113L259 62L294 62L294 0L199 0M302 0L302 62L337 62L337 113L302 113L302 175L397 175L397 113L362 113L362 62L397 62L397 0L302 0M408 0L408 174L433 174L433 105C433 99.7239 432.592 94.2608 433.059 89.0046C433.216 87.2297 433.645 84.2068 436.043 84.2068C438.425 84.2068 439.8 87.2615 440.737 89.0046C443.52 94.185 445.622 99.733 448.247 105C456.46 121.478 463.54 138.522 471.753 155C474.536 160.583 476.451 167.793 480.352 172.682C483.138 176.173 489.039 175 493 175L529 175L529 0L475 0L475 69C470.125 68.2067 468.919 65.0985 466.691 61C463.439 55.0171 460.361 48.9207 457 43C451.217 32.812 446.177 22.2064 440.424 12C438.54 8.65732 436.968 3.17035 433.61 1.02779C431.213 -0.50119 427.702 0.0012207 425 0L408 0M540 0L540 175L651 175L651 106L618 106C612.526 106 606.45 105.26 601.043 106.148C596.806 106.844 595.068 111.223 590.985 112.427C583.265 114.705 573.014 113 565 113L565 98L605 98L605 77L565 77L565 62C573.014 62 583.265 60.295 590.985 62.5725C595.068 63.7773 596.806 68.1559 601.043 68.8519C606.45 69.7399 612.526 69 618 69L651 69L651 0L540 0z"/>
</svg>
