<svg width="15" height="16" viewBox="0 0 15 16" fill="none" xmlns="http://www.w3.org/2000/svg">
<path fill-rule="evenodd" clip-rule="evenodd" d="M10 6.7C10 8.90914 8.20914 10.7 6 10.7C3.79086 10.7 2 8.90914 2 6.7C2 4.49086 3.79086 2.7 6 2.7C8.20914 2.7 10 4.49086 10 6.7ZM9.47933 11.5888C8.498 12.2884 7.29706 12.7 6 12.7C2.68629 12.7 0 10.0137 0 6.7C0 3.38629 2.68629 0.699997 6 0.699997C9.31371 0.699997 12 3.38629 12 6.7C12 7.99706 11.5884 9.19799 10.8888 10.1793C10.9097 10.1971 10.93 10.2158 10.9498 10.2355L14.4853 13.7711C14.8758 14.1616 14.8758 14.7948 14.4853 15.1853C14.0948 15.5758 13.4616 15.5758 13.0711 15.1853L9.53554 11.6497C9.5158 11.63 9.49707 11.6097 9.47933 11.5888Z" fill="rgba(31, 121, 204, 0.4)" fill-opacity="1"/>
</svg>
